<?xml version="1.0" encoding="utf-8"?>
<!-- Generator: Adobe Illustrator 24.3.0, SVG Export Plug-In . SVG Version: 6.00 Build 0)  -->
<svg version="1.1" id="Шар_1" xmlns="http://www.w3.org/2000/svg" xmlns:xlink="http://www.w3.org/1999/xlink" x="0px" y="0px"
	 viewBox="0 0 800 800" style="enable-background:new 0 0 800 800;" xml:space="preserve">
<g id="icomoon-ignore">
</g>
<path d="M547.1,127.9c88,0,159.4,71.4,159.4,159.4c0,45.2-18.8,86-49.1,115L400,661L137.9,397.6c-27.5-28.6-44.5-67.5-44.5-110.3
	c0-88.1,71.4-159.4,159.4-159.4c66.3,0,123.1,40.5,147.1,98.1C424,168.4,480.9,127.9,547.1,127.9L547.1,127.9z M547.1,101.2
	c-58.6,0-112.5,27.2-147.1,72.1c-34.6-44.9-88.5-72.1-147.1-72.1c-102.6,0-186,83.5-186,186.1c0,48.2,18.4,93.9,51.9,128.8
	L400,698.8l276.3-277.7c36.5-35.1,56.9-82.7,56.9-133.8C733.2,184.7,649.7,101.2,547.1,101.2L547.1,101.2L547.1,101.2z"/>
</svg>
