<?xml version="1.0" encoding="utf-8"?>
<!-- Generator: Adobe Illustrator 24.3.0, SVG Export Plug-In . SVG Version: 6.00 Build 0)  -->
<svg version="1.1" id="Шар_1" xmlns="http://www.w3.org/2000/svg" xmlns:xlink="http://www.w3.org/1999/xlink" x="0px" y="0px"
	 viewBox="0 0 800 800" style="enable-background:new 0 0 800 800;" xml:space="preserve">
<style type="text/css">
	.st0{fill:#FF001F;}
</style>
<g id="icomoon-ignore">
</g>
<g id="XMLID_1_">
	<g>
		<path class="st0" d="M706.5,287.3c0,45.2-18.8,86-49.1,115L400,661L137.9,397.6c-27.5-28.6-44.4-67.5-44.4-110.3
			c0-88,71.4-159.4,159.4-159.4c66.3,0,123.1,40.5,147.1,98.1c24-57.6,80.8-98.1,147.1-98.1C635.2,127.9,706.5,199.2,706.5,287.3z"
			/>
		<path class="st0" d="M733.2,287.3c0,51.1-20.4,98.8-56.9,133.8L400,698.8L118.7,416.1c-33.4-34.9-51.9-80.6-51.9-128.8
			c0-102.6,83.4-186,186.1-186c58.6,0,112.5,27.2,147.1,72.1c34.7-44.9,88.5-72.1,147.2-72.1v0C649.7,101.2,733.2,184.7,733.2,287.3
			z M657.5,402.3c30.2-29,49.1-69.8,49.1-115c0-88-71.4-159.4-159.4-159.4c-66.3,0-123.1,40.5-147.1,98.1
			c-24-57.6-80.8-98.1-147.1-98.1c-88,0-159.4,71.3-159.4,159.4c0,42.9,16.9,81.7,44.4,110.3L400,661L657.5,402.3z"/>
	</g>
	<g>
	</g>
</g>
</svg>
