<?xml version="1.0" encoding="utf-8"?>
<!-- Generator: Adobe Illustrator 24.3.0, SVG Export Plug-In . SVG Version: 6.00 Build 0)  -->
<svg version="1.1" id="Шар_1" xmlns="http://www.w3.org/2000/svg" xmlns:xlink="http://www.w3.org/1999/xlink" x="0px" y="0px"
	 viewBox="0 0 30 60" style="enable-background:new 0 0 30 60;" xml:space="preserve">
<style type="text/css">
	.st0{fill:#FFFFFF;}
</style>
<g>
	<path class="st0" d="M22.7,30.7c-0.4,0-0.8-0.2-1-0.6L9.2,6.4C9.1,6.2,9.1,5.8,9.2,5.5S9.5,5,9.7,4.9c0.2-0.1,0.3-0.1,0.5-0.1
		c0.4,0,0.8,0.2,1,0.6L23.7,29c0.3,0.6,0.1,1.3-0.5,1.6C23.1,30.6,22.9,30.7,22.7,30.7z"/>
	<path class="st0" d="M10.3,5.2c0.2,0,0.5,0.1,0.6,0.3l12.4,23.6c0.1,0.2,0.1,0.3,0,0.5S23.2,30,23,30.1c-0.1,0-0.2,0.1-0.3,0.1
		c-0.2,0-0.5-0.1-0.6-0.3L9.7,6.2C9.6,6,9.6,5.9,9.6,5.7C9.7,5.5,9.8,5.4,10,5.3C10.1,5.3,10.2,5.2,10.3,5.2 M10.3,4.2
		c-0.3,0-0.5,0.1-0.8,0.2v0C8.7,4.8,8.4,5.9,8.8,6.7l12.4,23.6c0.3,0.6,0.9,0.9,1.5,0.9c0.3,0,0.5-0.1,0.8-0.2
		c0.8-0.4,1.1-1.4,0.7-2.2L11.7,5.1C11.4,4.6,10.9,4.2,10.3,4.2L10.3,4.2z"/>
</g>
<g>
	<path class="st0" d="M10.3,54.3c-0.2,0-0.4,0-0.5-0.1c-0.6-0.3-0.8-1-0.5-1.6L21.7,29c0.2-0.4,0.6-0.6,1-0.6c0.2,0,0.4,0,0.5,0.1
		c0.6,0.3,0.8,1,0.5,1.6L11.3,53.7C11.1,54.1,10.7,54.3,10.3,54.3C10.3,54.3,10.3,54.3,10.3,54.3z"/>
	<path class="st0" d="M22.7,28.9c0.1,0,0.2,0,0.3,0.1c0.2,0.1,0.3,0.2,0.3,0.4s0,0.3,0,0.5L10.8,53.4c-0.1,0.2-0.3,0.3-0.6,0.3
		c-0.1,0-0.2,0-0.3-0.1c-0.2-0.1-0.3-0.2-0.3-0.4c-0.1-0.2,0-0.3,0-0.5l12.4-23.6C22.2,29,22.5,28.9,22.7,28.9 M22.7,27.9
		c-0.6,0-1.2,0.3-1.5,0.9L8.8,52.4c-0.4,0.8-0.1,1.8,0.7,2.2c0.2,0.1,0.5,0.2,0.8,0.2c0.6,0,1.2-0.3,1.5-0.9l12.4-23.6
		c0.4-0.8,0.1-1.8-0.7-2.2C23.2,27.9,23,27.9,22.7,27.9L22.7,27.9z"/>
</g>
</svg>
