<?xml version="1.0" encoding="utf-8"?>
<!-- Generator: Adobe Illustrator 24.3.0, SVG Export Plug-In . SVG Version: 6.00 Build 0)  -->
<svg version="1.1" id="Шар_1" xmlns="http://www.w3.org/2000/svg" xmlns:xlink="http://www.w3.org/1999/xlink" x="0px" y="0px"
	 viewBox="0 0 169 122" style="enable-background:new 0 0 169 122;" xml:space="preserve">
<style type="text/css">
	.st0{fill:#0070D1;}
	.st1{fill:#FFFFFF;}
	.st2{display:none;fill:#1D1D1B;}
</style>
<g transform="translate(0.000000,122.000000) scale(0.100000,-0.100000)">
	<g id="XMLID_13_">
		<g>
			<path class="st0" d="M1682,551c14-185-5-388-43-463c-35-69-121-90-177-43c-22,18-36,46-52,98c-18,58-31,81-70,119
				c-26,27-52,48-58,48c-5.1,0-16.8-13.9-28.2-32.3c-2.5,3.1-5,6.2-7.7,9.1c-2,3.8-4.3,7.3-7.6,10.3c-3.1,3.3-6.8,5.7-10.7,7.6
				c-0.9,0.7-1.9,1.3-2.9,1.9c9.5,40.1-1.1,85.5-38.9,120.4c-27.2,25.3-42.3,32.1-72.1,32.8c-3.1,4.1-6.3,8.1-9.6,12.1
				c-2.9,11.6-10.8,19.9-20.5,25.4l24.2,4.7l-31,50c-77,124-32,297,93,353c26,11,60,15,135,12c119-3,186-29,263-101
				C1648,741,1671,688,1682,551z M1489,570c52,0,77,53,45,98c-19,27-64,29-87,5C1408,629,1432,570,1489,570z M1409,716
				c26,32,26,46,4,72c-28,31-56,35-86,11c-32-25-35-61-7-89S1384,685,1409,716z M1409,466c27,34,26,50-4,79c-30,31-55,32-83,2
				c-29-31-28-61,4-86C1362,433,1384,435,1409,466z M1242,570c51,0,78,69,40,103c-24,22-65,21-85-1C1161,632,1188,570,1242,570z"/>
			<path class="st0" d="M1218,947c-108-16-185-91-208-204c-13-61-8-107,20-171l19-42l-27-14c-37-19-89-75-101-109c-6-16-11-48-11-73
				v-44h-55h-55v45c0,25-6,60-13,78c-14,31-81,100-108,109c-10,3-8,15,9,56c41,94,23,212-43,290c-40,46-84,69-153,79l-51,8l207,128
				c114,70,209,126,212,125c4-2,97-59,208-128l203-125L1218,947z M971,790l-3,48c-3,44-5,47-33,49c-47,3-55-5-55-53v-44h46H971z
				 M970,660v45v45h-45h-45v-45v-45h45H970z M830,660v45v45h-45h-45v-45v-45h45H830z M828,838c3,39,1,42-22,42c-13,0-31,2-38,5
				c-21,8-28-4-28-52v-44l43,3C825,795,825,795,828,838z"/>
			<path class="st0" d="M641.7,494.6c0.7-0.4,1.5-0.8,2.2-1.1c0.8-0.2,1.6-0.4,2.4-0.6c0.6-0.4,1.4-0.7,2.2-1
				c-10.2-8-17.4-19.5-18.6-33.1c-7,0.9-15.1,1.2-24.9,1.2c-42,0-52-5-86-39c-32-32-39-46-39-78c0-15.1,2.8-29.7,7.7-43.4
				c-3.8-0.7-7.5-1.9-11-3.7c-6.2-2-11.6-5.5-16.1-10.3c-2.3-2.5-4.4-5.3-6.3-8.1c-8.9,18.2-20.5,32.5-26.3,32.5c-7,0-33-22-58-48
				c-37-38-51-63-66-116C269,22,176-18,100,58c-46,47-62,143-62,372c0,239,11,278,101,369c58,59,104,86,181,107c64,18,173,17,218-2
				c127-53,175-207,106-341l-32-61l22.5-4.6c0.2-0.1,0.3-0.3,0.5-0.4C637.2,496,639.4,495.2,641.7,494.6z M521,590l-3,38
				c-3,36-4,37-49,40c-35,2-49-2-64-18c-17-19-17-21,0-40c13-15,31-20,67-20H521z M390,459v49c0,35-5,54-18,65c-23,21-25,21-46-2
				c-12-13-16-32-14-62c3-43,4-44,41-47L390,459z M324,688c31-42,68-8,64,59c-3,45-5,48-33,51c-17,2-34,0-38-4
				C305,782,310,706,324,688z M301,606c19,17,19,18-3,41c-16,17-32,23-65,23c-47,0-57-11-51-52c3-20,9-23,52-26
				C269,590,287,594,301,606z"/>
		</g>
	</g>
</g>
<g id="XMLID_12_">
	<g>
		<circle class="st0" cx="113.4" cy="86.8" r="15.3"/>
	</g>
</g>
<circle class="st1" cx="113.4" cy="86.8" r="10.9"/>
<g id="XMLID_10_">
	<g>
		<path class="st0" d="M113.4,79.4c4.1,0,7.4,3.3,7.4,7.4c0,4.1-3.3,7.4-7.4,7.4c-4.1,0-7.4-3.3-7.4-7.4S109.3,79.4,113.4,79.4z"/>
	</g>
</g>
<g id="XMLID_11_">
	<g>
		<path class="st0" d="M64.9,72.8c5.3,2.4,9.1,7.8,9.1,14c0,8.5-6.9,15.3-15.3,15.3s-15.3-6.9-15.3-15.3s6.9-15.3,15.3-15.3
			c1.7,0,3.3,0.3,4.8,0.8c0,0,0,0,0.1,0.1c0.2,0.1,0.4,0.2,0.7,0.2c0.1,0,0.2,0.1,0.2,0.1c0.1,0,0.2,0,0.2,0.1
			C64.7,72.8,64.8,72.8,64.9,72.8z"/>
	</g>
</g>
<circle class="st1" cx="58.7" cy="86.8" r="10.9"/>
<g id="XMLID_9_">
	<g>
		<circle class="st0" cx="58.7" cy="86.8" r="7.4"/>
	</g>
</g>
<g id="XMLID_8_">
	<g>
		<ellipse class="st0" cx="77.8" cy="38.3" rx="7.5" ry="6.1"/>
	</g>
</g>
<g id="XMLID_7_">
	<g>
		<path class="st0" d="M92.2,31.2c3.8,0,6.9,3.2,6.9,7.2c0,4-3.1,7.2-6.9,7.2c-3.8,0-6.9-3.2-6.9-7.2C85.3,34.5,88.4,31.2,92.2,31.2
			z"/>
	</g>
</g>
<rect x="74.1" y="34" class="st1" width="8.9" height="8.9"/>
<g id="XMLID_14_">
	<g>
		<rect x="88.1" y="34" class="st1" width="8.9" height="8.9"/>
	</g>
	<g>
	</g>
</g>
<g id="XMLID_6_">
	<g>
		<ellipse class="st0" cx="138.1" cy="59.2" rx="20.8" ry="19.5"/>
	</g>
</g>
<circle class="st2" cx="125.1" cy="57.9" r="4.1"/>
<circle class="st1" cx="136.3" cy="47" r="6"/>
<circle class="st1" cx="136.5" cy="71.5" r="6"/>
<circle class="st1" cx="148.8" cy="59" r="6"/>
<circle class="st1" cx="123.3" cy="59" r="6"/>
<g id="XMLID_5_">
	<g>
		<path class="st0" d="M34,38.9c11.2,0,20.4,8.9,20.4,19.8c0,10.9-9.1,19.8-20.4,19.8c-11.2,0-20.4-8.9-20.4-19.8
			C13.6,47.8,22.7,38.9,34,38.9z"/>
	</g>
</g>
<g id="XMLID_1_">
	<g>
		<polygon class="st1" points="31.5,58.9 31.5,59 27.8,63 18,63 18,55 27.9,55 		"/>
	</g>
</g>
<g id="XMLID_2_">
	<g>
		<polygon class="st1" points="35.2,55 35.1,55 31.1,51.3 31.1,41.6 39.1,41.6 39.1,51.5 		"/>
	</g>
</g>
<g id="XMLID_3_">
	<g>
		<polygon class="st1" points="52.7,63 42.8,63 39.2,59.1 39.2,59 43,55 52.7,55 		"/>
	</g>
</g>
<g id="XMLID_4_">
	<g>
		<polygon class="st1" points="35,63 35.1,63 39.1,66.7 39.1,76.4 31.1,76.4 31.1,66.5 		"/>
	</g>
</g>
<g id="XMLID_15_">
	<g>
		<rect x="74.1" y="47" class="st1" width="8.9" height="8.9"/>
	</g>
	<g>
	</g>
</g>
<g id="XMLID_16_">
	<g>
		<rect x="88" y="47" class="st1" width="8.9" height="8.9"/>
	</g>
	<g>
	</g>
</g>
</svg>
