<?xml version="1.0" encoding="utf-8"?>
<!-- Generator: Adobe Illustrator 24.3.0, SVG Export Plug-In . SVG Version: 6.00 Build 0)  -->
<svg version="1.1" id="Шар_1" xmlns="http://www.w3.org/2000/svg" xmlns:xlink="http://www.w3.org/1999/xlink" x="0px" y="0px"
	 viewBox="0 0 500 100" style="enable-background:new 0 0 500 100;" xml:space="preserve">
<style type="text/css">
	.st0{fill:none;}
	.st1{enable-background:new    ;}
	.st2{fill:#ECECEC;}
</style>
<rect x="5.5" y="13.3" class="st0" width="500" height="93.8"/>
<g class="st1">
	<path class="st2" d="M12.9,17.8h18.7c2.6,0,4.8,0.1,6.4,0.2c1.6,0.1,3.3,0.4,5.1,0.8c1.9,0.4,3.4,1,4.5,1.8
		c1.1,0.8,2.1,1.9,2.9,3.3c0.8,1.4,1.1,3.1,1.1,5.1v11.9c0,4.8-1.8,8.2-5.5,10.3c-3.7,2.1-9.1,3.1-16.2,3.1h-8.5v20.6h-8.5V17.8z
		 M31.1,48.9c3.7,0,6.7-0.7,8.9-2c2.2-1.3,3.3-3.5,3.3-6.4V30.1c0-1.6-0.4-2.9-1.2-3.9c-0.8-1-2-1.7-3.5-2.2
		c-1.5-0.4-2.7-0.6-3.7-0.7c-1-0.1-2.3-0.2-4-0.2h-9.6v25.8H31.1z"/>
	<path class="st2" d="M62.5,13.3h7.9v61.6h-7.9V13.3z"/>
	<path class="st2" d="M87.9,74.6c-2.2-0.8-3.8-2.1-4.8-4c-1-1.9-1.5-4.7-1.5-8.4c0-3.2,0.5-5.7,1.4-7.5c0.9-1.8,2.5-3.1,4.7-3.8
		c2.2-0.8,5.3-1.1,9.4-1.1h12.8V43c0-1.6-0.3-2.8-0.9-3.7c-0.6-0.8-1.6-1.5-3.1-1.8c-1.4-0.4-3.5-0.5-6.3-0.5
		c-4.4,0-9.3,0.4-14.6,1.1v-5.8c5.8-0.5,11.1-0.8,15.8-0.8c4.9,0,8.6,0.4,10.9,1.1c2.3,0.7,4,2,4.8,3.8c0.9,1.8,1.3,4.6,1.3,8.4
		v30.1h-7.7v-4c-0.6,3.3-4.9,4.9-12.8,4.9C93.2,75.8,90.1,75.4,87.9,74.6z M98.6,70.6c2.9,0,5.3-0.2,7.3-0.6c2.6-0.5,4-1.8,4-3.7
		V54.7H97.6c-2.5,0-4.3,0.2-5.5,0.6c-1.1,0.4-1.8,1.1-2.2,2.2c-0.4,1.1-0.5,2.8-0.5,5.1c0,2.1,0.2,3.7,0.6,4.9
		c0.4,1.1,1.1,2,2.2,2.5c1.1,0.5,2.6,0.7,4.8,0.7H98.6z"/>
	<path class="st2" d="M141.6,75.5l-16.5-43.2h8.6l11.9,34.8h0.2l10.7-34.8h8l-21.4,60.9h-8.3L141.6,75.5z"/>
	<path class="st2" d="M189.1,17.8h9.9l22.2,57.1h-8.9l-6.5-17.3h-24.5l-6.4,17.3h-8.4L189.1,17.8z M203.7,51.7L194,25.9h-0.8
		l-9.7,25.8H203.7z"/>
	<path class="st2" d="M238.7,74.6c-2.1-0.8-3.5-2.1-4.4-4c-0.9-1.9-1.4-4.6-1.4-8.1v-25h-9.5v-5.2h9.5V19.1h8v13.2h15.2v5.2h-15.2
		v25.4c0,2.1,0.2,3.7,0.7,4.8c0.5,1.1,1.4,1.8,2.6,2.2c1.3,0.4,3.1,0.7,5.5,0.7c0.8,0,2.9-0.2,6.3-0.7v5.2c-3,0.5-6,0.7-8.9,0.7
		C243.6,75.8,240.7,75.4,238.7,74.6z"/>
	<path class="st2" d="M265.2,17.8h8.5v24.6h30.4V17.8h8.5v57.1h-8.5V48.4h-30.4v26.5h-8.5V17.8z"/>
	<path class="st2" d="M336.5,75.4c-1.9-0.3-3.8-0.8-5.6-1.7c-1.9-0.9-3.3-2.3-4.2-4.3c-0.9-2-1.3-4.6-1.3-8V46.6c0-2.6,0.3-5,1-7
		c0.6-2,1.5-3.5,2.6-4.7c0.9-1,2.2-1.8,4-2.3c1.8-0.6,3.6-0.9,5.5-1.1c2.1-0.1,4.3-0.2,6.6-0.2c3,0,5.4,0.1,6.9,0.2
		c1.6,0.1,3.2,0.5,5,0.9c1.8,0.5,3.2,1.3,4.2,2.4c1,1.1,1.8,2.6,2.6,4.6c0.6,2.1,1,4.4,1,7.1v14.8c0,5-1.1,8.6-3.4,10.9
		c-0.9,0.9-2.3,1.7-4,2.2c-1.8,0.5-3.6,0.9-5.5,1.1c-2.2,0.1-4.5,0.2-6.7,0.2C341.2,75.8,338.4,75.6,336.5,75.4z M350.3,70.4
		c1.1-0.1,2.2-0.4,3.3-1c1.1-0.5,1.8-1.2,2.2-2.3c0.4-1.1,0.7-2.6,0.7-4.5V45.3c0-2.6-0.3-4.6-1-5.8c-0.6-1.2-1.7-2-3.3-2.4
		c-1.6-0.4-4-0.6-7.3-0.6c-3.3,0-5.7,0.2-7.3,0.6c-1.6,0.4-2.7,1.2-3.3,2.4c-0.6,1.2-1,3.1-1,5.8v17.2c0,1.9,0.2,3.4,0.7,4.5
		c0.4,1.1,1.2,1.9,2.2,2.3c1.1,0.5,2.1,0.9,3.3,1c1.1,0.1,2.9,0.2,5.4,0.2S349.2,70.5,350.3,70.4z"/>
	<path class="st2" d="M376.9,32.3h7.9v5.2c0.8-4,5.6-6.1,14.3-6.1c7.1,0,11.5,1.9,13.3,5.8c0.5-1.9,2.1-3.3,4.8-4.3
		c2.7-1,5.9-1.5,9.8-1.5c5.3,0,9,1,11.2,2.9c2.2,2,3.3,5.1,3.3,9.3v31.2h-7.9V44.2c0-1.1-0.1-2-0.3-2.7c-0.2-0.7-0.5-1.4-1.1-2.1
		c-1.2-1.5-3.8-2.2-7.8-2.2c-3.1,0-5.4,0.2-7,0.6c-1.5,0.4-2.6,1.1-3.1,2.1c-0.6,1-0.8,2.4-0.8,4.3v30.7h-7.9V44.2
		c0-1.1-0.1-2-0.3-2.7c-0.2-0.7-0.5-1.4-1.1-2.1c-1.2-1.5-3.8-2.2-7.7-2.2c-3.2,0-5.7,0.2-7.3,0.6c-1.6,0.4-2.8,1.1-3.4,2.1
		c-0.6,1-1,2.4-1,4.4v30.7h-7.9V32.3z"/>
	<path class="st2" d="M453.7,62.8V45.9c0-5.2,1.5-8.9,4.4-11.1c3-2.3,7.8-3.4,14.4-3.4c6.3,0,10.8,1.1,13.6,3.3
		c2.8,2.2,4.2,5.9,4.2,11.3v9.4h-28.6v6.4c0,2.9,1,5,3.1,6.3c2.1,1.3,5.2,1.9,9.5,1.9c4,0,8.8-0.7,14.3-2.1V74
		c-5.4,1.2-10.5,1.8-15.4,1.8C460.2,75.8,453.7,71.4,453.7,62.8z M482.3,50.2v-6.7c0-2.6-0.8-4.4-2.3-5.3c-1.6-1-4.2-1.5-8-1.5
		c-3.6,0-6.3,0.5-7.9,1.5c-1.6,1-2.5,2.7-2.5,5.3v6.7H482.3z"/>
</g>
</svg>
