<?xml version="1.0" encoding="utf-8"?>
<!-- Generator: Adobe Illustrator 24.3.0, SVG Export Plug-In . SVG Version: 6.00 Build 0)  -->
<svg version="1.1" id="Шар_2" xmlns="http://www.w3.org/2000/svg" xmlns:xlink="http://www.w3.org/1999/xlink" x="0px" y="0px"
	 viewBox="0 0 169 122" style="enable-background:new 0 0 169 122;" xml:space="preserve">
<style type="text/css">
	.st0{fill:#0070D1;}
	.st1{fill:#FFFFFF;}
	.st2{fill:none;}
</style>
<g id="Шар_1">
	<g>
		<g id="XMLID_8_">
			<g>
				<path class="st0" d="M52.7,63v-8H43l-0.6,0.6c-0.7,0.3-1.3,0.7-1.9,1.4c-0.8,0.9-1.3,1.5-1.3,2l0,0v0.1l0,0
					c0.1,0.5,0.5,1,1.3,1.9c0.5,0.5,1,0.9,1.6,1.2l0.7,0.8h4.4h4.2H52.7z M42.8,91c-0.7,0-3.3,2.2-5.8,4.8
					c-3.7,3.8-5.1,6.3-6.6,11.6c-3.5,12.4-12.8,16.4-20.4,8.8c-4.6-4.7-6.2-14.3-6.2-37.2c0-23.9,1.1-27.8,10.1-36.9
					c5.8-5.9,10.4-8.6,18.1-10.7c6.4-1.8,17.3-1.7,21.8,0.2c12.7,5.3,17.5,20.7,10.6,34.1L61.6,71c-0.1,0.3-0.1,0.6,0.2,0.8
					c-1-0.2-2-0.3-3.1-0.3c-8.4,0-15.3,6.9-15.3,15.3c0,2.2,0.5,4.3,1.3,6.2C44,91.8,43.2,91,42.8,91z M31.8,52l3.3,3h0.1l3.9-3.5
					v-9.9h-8v2.9c-0.1,1-0.1,2.3,0,3.6v3.2L31.8,52z M27.8,63l3.7-4v-0.1L27.9,55H18v8H27.8z M39.1,76.4v-9.7l-1-1
					c-0.2-0.4-0.5-0.8-0.8-1c-0.8-0.7-1.3-1.2-1.8-1.4L35.1,63H35l-0.2,0.2c-0.6,0-1.2,0.6-2.2,1.7c-0.2,0.2-0.4,0.5-0.6,0.8
					l-0.9,0.8v9.9H39.1z"/>
				<polygon class="st1" points="18,55 27.9,55 31.5,58.9 31.5,59 27.8,63 18,63 				"/>
				<path class="st0" d="M168.2,66.9c1.4,18.5-0.5,38.8-4.3,46.3c-3.5,6.9-12.1,9-17.7,4.3c-2.2-1.8-3.6-4.6-5.2-9.8
					c-1.8-5.8-3.1-8.1-7-11.9c-2.6-2.7-5.2-4.8-5.8-4.8c0,0-0.1,0-0.1,0c0.4-1.3,0.6-2.8,0.6-4.2c0-8.5-6.8-15.3-15.3-15.3
					c-1.1,0-2.2,0.1-3.3,0.3c0.2-0.1,0.3-0.3,0.3-0.5c0-0.1,0-0.2-0.1-0.3l-2.6-4.2c-7.7-12.4-3.2-29.7,9.3-35.3
					c2.6-1.1,6-1.5,13.5-1.2c11.9,0.3,18.6,2.9,26.3,10.1C164.8,47.9,167.1,53.2,168.2,66.9z M154.9,59c0-3.3-2.7-6-6-6
					c-3.3,0-6,2.7-6,6s2.7,6,6,6C152.2,65,154.9,62.3,154.9,59z M142,48.9c1.5-2.2,1.2-3.6-0.7-5.7c-2.8-3.1-5.6-3.5-8.6-1.1
					c-2.7,2.1-3.3,5-1.8,7.5c1,2,3,3.4,5.4,3.4C138.9,53,141.2,51.3,142,48.9z M142.5,71.5c0-3.3-2.7-6-6-6c-3.3,0-6,2.7-6,6
					s2.7,6,6,6C139.8,77.5,142.5,74.8,142.5,71.5z M130.3,59c0-3.3-2.7-6-6-6c-3.3,0-6,2.7-6,6s2.7,6,6,6
					C127.6,65,130.3,62.3,130.3,59z"/>
				<circle class="st1" cx="148.9" cy="59" r="6"/>
				<path class="st1" d="M142.3,47c0,0.7-0.1,1.3-0.3,1.9c-0.3,0.5-0.6,0.9-1.1,1.5c-2.5,3.1-6.1,3.4-8.9,0.6
					c-0.4-0.5-0.8-0.9-1.1-1.4c-0.4-0.8-0.6-1.7-0.6-2.6c0-3.3,2.7-6,6-6S142.3,43.7,142.3,47z"/>
				<circle class="st1" cx="136.5" cy="71.5" r="6"/>
				<path class="st1" d="M140.9,50.4c0.4-0.5,0.8-1,1.1-1.5c-0.8,2.4-3.1,4.1-5.7,4.1c-2.4,0-4.4-1.4-5.4-3.4c0.3,0.5,0.7,1,1.1,1.4
					C134.8,53.8,138.4,53.5,140.9,50.4z"/>
				<path class="st0" d="M132.7,42.1c3-2.4,5.8-2,8.6,1.1c1.8,2.2,2.1,3.5,0.7,5.7c0.2-0.6,0.3-1.3,0.3-1.9c0-3.3-2.7-6-6-6
					s-6,2.7-6,6c0,0.9,0.2,1.8,0.6,2.6C129.4,47.1,130,44.2,132.7,42.1z"/>
				<circle class="st1" cx="125.1" cy="57.9" r="4.1"/>
				<path class="st0" d="M125.4,94.2c1.1-1.7,2.2-3.1,2.7-3.2c-1.8,6.4-7.7,11.1-14.7,11.1c-8.5,0-15.3-6.8-15.3-15.3
					c0-7.3,5.2-13.5,12-15c-0.1,0.1-0.2,0.1-0.3,0.1c-0.5,0.1-0.7,0.8-0.3,1.2c0.4,0.4,0.7,0.9,0.9,1.6c0,0.1,0.1,0.1,0.1,0.2
					c0.2,0.3,0.5,0.6,0.7,0.9c0.1,0.2,0.3,0.2,0.5,0.3c-5.2,0.8-9.2,5.3-9.2,10.8c0,6,4.9,10.9,10.9,10.9c4.2,0,7.9-2.4,9.7-6
					c0.3,0.2,0.5,0.3,0.7,0.6c0.3,0.3,0.6,0.7,0.8,1C124.9,93.6,125.1,93.9,125.4,94.2z"/>
				<path class="st1" d="M125.1,62c2.3,0,4.1-1.8,4.1-4.1c0-2.3-1.8-4.1-4.1-4.1s-4.1,1.8-4.1,4.1C121,60.2,122.8,62,125.1,62z
					 M130.3,59c0,3.3-2.7,6-6,6c-3.3,0-6-2.7-6-6s2.7-6,6-6C127.6,53,130.3,55.7,130.3,59z"/>
				<circle class="st0" cx="113.4" cy="86.8" r="7.4"/>
				<path class="st1" d="M113.4,94.2c4.1,0,7.4-3.3,7.4-7.4c0-4.1-3.3-7.4-7.4-7.4s-7.4,3.3-7.4,7.4C106,90.9,109.3,94.2,113.4,94.2
					z M118.6,79.3c3.6,3.3,4.8,7.6,4,11.5c0.1,0.3,0.2,0.5,0.4,0.8c0.1,0,0.1,0.1,0.2,0.1c-1.8,3.5-5.5,6-9.7,6
					c-6,0-10.9-4.9-10.9-10.9c0-5.5,4-10,9.2-10.8c0,0,0,0,0,0C114.5,76.2,116,76.9,118.6,79.3z"/>
				<path class="st0" d="M96.7,55.9h0.2v-0.2c0.1-0.1,0.1-0.2,0.1-0.3v-3.8v-3.8c0-0.1,0-0.2-0.1-0.3V47h-0.6h-3.8h-3.8H88v0.7v3.8
					v3.8v0.6H96.7z M121.8,27.3c-10.8,1.6-18.5,9.1-20.8,20.4c-1.3,6.1-0.8,10.7,2,17.1l1.6,3.6c0.1,0.3,0,0.7-0.3,0.9l-2.1,1.1
					c-3.7,1.9-8.9,7.5-10.1,10.9c-0.6,1.6-1.1,4.8-1.1,7.3v3.7c0,0.4-0.3,0.7-0.7,0.7h-4.8h-4.8c-0.4,0-0.7-0.3-0.7-0.7v-3.8
					c0-2.5-0.6-5.9-1.3-7.8c0,0,0,0,0-0.1c-1.4-3.1-8.1-10-10.8-10.9c-1-0.3-0.8-1.5,0.9-5.6c4.1-9.4,2.3-21.2-4.3-29
					c-4-4.6-8.4-6.9-15.3-7.9l-3.3-0.5c-0.6-0.1-0.8-0.9-0.2-1.2l19.2-11.8c10.3-6.3,19-11.5,20.8-12.4c0.2-0.1,0.4-0.1,0.6,0
					c1.7,1,10.3,6.3,20.5,12.6l18.7,11.5c0.5,0.3,0.4,1.1-0.3,1.2L121.8,27.3z M82.7,55.9H83v-0.6v-7.7V47h-0.7h-7.7h-0.6v0.3v8.6
					H82.7z M97,42.9V34h-8.9v8.9H97z M83,42.9V34h-8.9v8.9H83z"/>
				<path class="st1" d="M124.3,86.8c0,1.8-0.4,3.4-1.2,4.9c-0.1,0-0.1-0.1-0.2-0.1c-0.1-0.3-0.2-0.5-0.4-0.8
					c0.8-3.9-0.4-8.2-4-11.5c-2.6-2.4-4.1-3.2-6.9-3.3c0.5-0.1,1.1-0.1,1.7-0.1C119.4,75.9,124.3,80.8,124.3,86.8z"/>
				<path class="st0" d="M128.1,91c-0.6,0.2-1.7,1.5-2.7,3.2c-0.2-0.3-0.5-0.6-0.8-0.9c-0.2-0.4-0.4-0.7-0.8-1
					c-0.2-0.2-0.5-0.4-0.7-0.6c0.8-1.5,1.2-3.2,1.2-4.9c0-6-4.9-10.9-10.9-10.9c-0.6,0-1.1,0-1.7,0.1c0,0,0,0,0,0
					c-0.2,0-0.4-0.1-0.5-0.3c-0.2-0.3-0.4-0.6-0.7-0.9c-0.1-0.1-0.1-0.1-0.1-0.2c-0.2-0.6-0.5-1.1-0.9-1.6c-0.4-0.4-0.2-1.1,0.3-1.2
					c0.1,0,0.2-0.1,0.3-0.1c1.1-0.2,2.2-0.3,3.3-0.3c8.4,0,15.3,6.8,15.3,15.3C128.7,88.3,128.5,89.7,128.1,91
					C128.1,91,128.1,91,128.1,91z"/>
				<path class="st0" d="M97,51.5v3.8c0,0.1,0,0.2-0.1,0.3v-8.4c0.1,0.1,0.1,0.2,0.1,0.3V51.5z"/>
				<rect x="88.1" y="34" class="st1" width="8.9" height="8.9"/>
				<path class="st1" d="M96.9,55.7v0.2h-0.2C96.8,55.8,96.8,55.8,96.9,55.7z"/>
				<path class="st1" d="M96.9,47.3v8.4c-0.1,0.1-0.1,0.2-0.2,0.2H88v-0.6v-3.8v-3.8c0-0.4,0.3-0.7,0.7-0.7h3.8h3.8
					C96.6,47,96.8,47.1,96.9,47.3z"/>
				<path class="st1" d="M96.9,47v0.3c-0.1-0.2-0.3-0.3-0.6-0.3H96.9z"/>
				<path class="st1" d="M88,47h0.7c-0.4,0-0.7,0.3-0.7,0.7V47z"/>
				<path class="st1" d="M83,47.7v7.7c0,0.2-0.1,0.4-0.3,0.6h-8.6v-8.6c0.1-0.2,0.3-0.3,0.6-0.3h7.7C82.7,47,83,47.3,83,47.7z"/>
				<path class="st1" d="M83,55.3v0.6h-0.3C82.9,55.8,83,55.6,83,55.3z"/>
				<path class="st1" d="M83,47v0.7c0-0.4-0.3-0.7-0.7-0.7H83z"/>
				<rect x="74.1" y="34" class="st1" width="8.9" height="8.9"/>
				<path class="st1" d="M74.1,47h0.6c-0.2,0-0.4,0.1-0.6,0.3V47z"/>
				<path class="st0" d="M64.8,72.8c-0.1,0-0.1,0-0.1,0c0,0,0,0,0-0.1C64.7,72.8,64.8,72.8,64.8,72.8z"/>
				<path class="st0" d="M64.6,72.7c0,0-0.1,0-0.1,0c0,0,0,0,0,0C64.5,72.7,64.6,72.7,64.6,72.7z"/>
				<path class="st0" d="M64.5,72.7C64.4,72.7,64.4,72.7,64.5,72.7c-0.1,0-0.1,0-0.2-0.1C64.4,72.6,64.4,72.7,64.5,72.7z"/>
				<circle class="st0" cx="58.7" cy="86.8" r="7.4"/>
				<path class="st0" d="M64.2,72.5c0,0,0.1,0,0.1,0.1c-0.3,0-0.5-0.1-0.7-0.2c0-0.1-0.1-0.1-0.1-0.1C63.7,72.4,63.9,72.5,64.2,72.5
					z"/>
				<path class="st0" d="M63.5,72.3C63.5,72.3,63.5,72.3,63.5,72.3c0,0-0.1,0-0.2,0L63.5,72.3z"/>
				<path class="st0" d="M61.8,71.8c0.5,0.1,1,0.2,1.5,0.4L62.1,72C62,72,61.9,71.9,61.8,71.8z"/>
				<path class="st0" d="M62.4,76.1c0.3,0,0.6-0.2,0.7-0.5c0.2-1.1,0.9-2.1,1.8-2.8c0,0,0,0,0,0c0,0,0,0,0.1,0
					c5.3,2.4,9.1,7.8,9.1,14c0,8.5-6.9,15.3-15.3,15.3c-6.2,0-11.6-3.8-14-9.1c0.2,0.4,0.5,0.8,0.7,1.2c0.2-0.3,0.4-0.6,0.6-0.8
					c0.4-0.5,1-0.8,1.6-1c0.4-0.2,0.7-0.3,1.1-0.4c-0.3-0.8-0.5-1.7-0.6-2.5c1.2,4.7,5.5,8.2,10.6,8.2c6,0,10.9-4.9,10.9-10.9
					c0-5.5-4.1-10.1-9.4-10.8c0.1,0,0.2,0,0.3,0C61.2,76,61.8,76,62.4,76.1z"/>
				<path class="st1" d="M48,87.7c0-3.2,0.7-4.6,3.9-7.8c3.3-3.3,4.3-3.9,8.3-3.9c5.3,0.7,9.4,5.3,9.4,10.8c0,6-4.9,10.9-10.9,10.9
					c-5.1,0-9.4-3.5-10.6-8.2c0,0,0-0.1,0-0.2C48,88.8,48,88.3,48,87.7z M58.7,79.4c-4.1,0-7.4,3.3-7.4,7.4c0,4.1,3.3,7.4,7.4,7.4
					s7.4-3.3,7.4-7.4C66.1,82.7,62.8,79.4,58.7,79.4z"/>
				<path class="st1" d="M52.7,55v8h-1.3h-4.2c-2.4,0-4-0.2-5.1-0.8l-2.8-3.1c0,0,0-0.1,0-0.2l3.2-3.4L43,55H52.7z"/>
				<path class="st1" d="M58.7,75.9c0.5,0,1,0,1.5,0.1c-3.9,0-5,0.6-8.3,3.9c-3.2,3.2-3.9,4.6-3.9,7.8c0,0.6,0,1.1,0.1,1.7
					c-0.2-0.8-0.3-1.7-0.3-2.6C47.8,80.8,52.7,75.9,58.7,75.9z"/>
				<path class="st1" d="M47.2,63h-4.4l-0.7-0.8C43.2,62.8,44.8,63,47.2,63z"/>
				<path class="st0" d="M64.8,72.8c-0.9,0.7-1.5,1.6-1.8,2.8c-0.1,0.3-0.4,0.5-0.7,0.5c-0.6,0-1.2-0.1-1.9-0.1c-0.1,0-0.2,0-0.3,0
					c-0.5-0.1-1-0.1-1.5-0.1c-6,0-10.9,4.9-10.9,10.9c0,0.9,0.1,1.8,0.3,2.6c0,0.1,0,0.1,0,0.2c0.1,0.9,0.3,1.7,0.6,2.5
					c-0.4,0.1-0.8,0.2-1.1,0.4c-0.6,0.2-1.2,0.5-1.6,1c-0.2,0.2-0.4,0.5-0.6,0.8c-0.2-0.4-0.5-0.9-0.7-1.2c0,0,0,0,0,0
					c-0.9-1.9-1.3-4-1.3-6.2c0-8.4,6.9-15.3,15.3-15.3c1.1,0,2.1,0.1,3.1,0.3c0,0,0,0,0,0c0.1,0.1,0.2,0.1,0.3,0.2l1.1,0.2
					c0.1,0,0.2,0,0.3,0.1l0,0c0,0,0,0,0.1,0.1c0.2,0.1,0.4,0.2,0.7,0.2c0,0,0,0,0,0c0,0,0.1,0,0.1,0.1s0.1,0,0.1,0c0,0,0,0,0,0
					c0.1,0,0.1,0,0.1,0c0,0,0,0,0.1,0c0,0,0,0,0,0.1C64.7,72.8,64.8,72.8,64.8,72.8C64.8,72.8,64.8,72.8,64.8,72.8z"/>
				<path class="st0" d="M42.4,55.6L39.2,59c0-0.5,0.4-1,1.3-2C41.1,56.3,41.7,55.9,42.4,55.6z"/>
				<path class="st0" d="M39.2,59.1l2.8,3.1c-0.6-0.3-1.1-0.7-1.6-1.2C39.7,60.1,39.3,59.6,39.2,59.1z"/>
				<path class="st1" d="M39.2,59.1L39.2,59.1l0-0.1l0,0C39.2,59,39.2,59.1,39.2,59.1z"/>
				<path class="st1" d="M39.1,66.7v9.7h-8v-9.9l0.9-0.8l2.8-2.5c0.2,0,0.4,0,0.6,0.1l2.6,2.4L39.1,66.7z"/>
				<path class="st0" d="M38,65.7l-2.6-2.4c0.5,0.2,1,0.7,1.8,1.4C37.5,65,37.8,65.3,38,65.7z"/>
				<path class="st1" d="M35.1,63l0.3,0.3c-0.2-0.1-0.4-0.2-0.6-0.1L35.1,63L35.1,63z"/>
				<path class="st0" d="M34.8,63.2L32,65.7c0.2-0.3,0.3-0.5,0.6-0.8C33.7,63.8,34.2,63.2,34.8,63.2z"/>
				<path class="st1" d="M31.1,41.6h8v9.9L35.2,55h-0.1l-3.3-3c-0.3-1-0.6-2.4-0.7-3.8v-3.6V41.6z"/>
				<path class="st1" d="M31.8,52l-0.7-0.7v-3.2C31.2,49.5,31.5,50.9,31.8,52z"/>
				<path class="st0" d="M31.1,44.5v3.6C31,46.8,31,45.5,31.1,44.5z"/>
			</g>
			<g>
			</g>
		</g>
	</g>
</g>
<rect id="_x3C_Фрагмент_x3E_" x="3" y="1" class="st2" width="166" height="120"/>
</svg>
