<?xml version="1.0" encoding="utf-8"?>
<!-- Generator: Adobe Illustrator 24.3.0, SVG Export Plug-In . SVG Version: 6.00 Build 0)  -->
<svg version="1.1" id="Шар_1" xmlns="http://www.w3.org/2000/svg" xmlns:xlink="http://www.w3.org/1999/xlink" x="0px" y="0px"
	 viewBox="0 0 169 122" style="enable-background:new 0 0 169 122;" xml:space="preserve">
<style type="text/css">
	.st0{fill:#0070D1;}
	.st1{fill:#FFFFFF;}
	.st2{display:none;fill:#1D1D1B;}
</style>
<g transform="translate(0.000000,122.000000) scale(0.100000,-0.100000)">
	<g id="XMLID_13_">
		<g>
			<path class="st0" d="M1682,551c14-185-5-388-43-463c-35-69-121-90-177-43c-22,18-36,46-52,98c-18,58-31,81-70,119
				c-26,27-52,48-58,48c-5.1,0-16.8-13.9-28.2-32.3c-2.5,3.1-5,6.2-7.7,9.1c-2,3.8-4.3,7.3-7.6,10.3c-3.1,3.3-6.8,5.7-10.7,7.6
				c-0.9,0.7-1.9,1.3-2.9,1.9c9.5,40.1-1.1,85.5-38.9,120.4c-27.2,25.3-42.3,32.1-72.1,32.8c-3.1,4.1-6.3,8.1-9.6,12.1
				c-2.9,11.6-10.8,19.9-20.5,25.4l24.2,4.7l-31,50c-77,124-32,297,93,353c26,11,60,15,135,12c119-3,186-29,263-101
				C1648,741,1671,688,1682,551z M1489,570c52,0,77,53,45,98c-19,27-64,29-87,5C1408,629,1432,570,1489,570z M1409,716
				c26,32,26,46,4,72c-28,31-56,35-86,11c-32-25-35-61-7-89S1384,685,1409,716z M1409,466c27,34,26,50-4,79c-30,31-55,32-83,2
				c-29-31-28-61,4-86C1362,433,1384,435,1409,466z M1242,570c51,0,78,69,40,103c-24,22-65,21-85-1C1161,632,1188,570,1242,570z"/>
			<path class="st0" d="M1218,947c-108-16-185-91-208-204c-13-61-8-107,20-171l19-42l-27-14c-37-19-89-75-101-109c-6-16-11-48-11-73
				v-44h-55h-55v45c0,25-6,60-13,78c-14,31-81,100-108,109c-10,3-8,15,9,56c41,94,23,212-43,290c-40,46-84,69-153,79l-51,8l207,128
				c114,70,209,126,212,125c4-2,97-59,208-128l203-125L1218,947z M971,790l-3,48c-3,44-5,47-33,49c-47,3-55-5-55-53v-44h46H971z
				 M970,660v45v45h-45h-45v-45v-45h45H970z M830,660v45v45h-45h-45v-45v-45h45H830z M828,838c3,39,1,42-22,42c-13,0-31,2-38,5
				c-21,8-28-4-28-52v-44l43,3C825,795,825,795,828,838z"/>
			<path class="st0" d="M641.7,494.6c0.7-0.4,1.5-0.8,2.2-1.1c0.8-0.2,1.6-0.4,2.4-0.6c0.6-0.4,1.4-0.7,2.2-1
				c-10.2-8-17.4-19.5-18.6-33.1c-7,0.9-15.1,1.2-24.9,1.2c-42,0-52-5-86-39c-32-32-39-46-39-78c0-15.1,2.8-29.7,7.7-43.4
				c-3.8-0.7-7.5-1.9-11-3.7c-6.2-2-11.6-5.5-16.1-10.3c-2.3-2.5-4.4-5.3-6.3-8.1c-8.9,18.2-20.5,32.5-26.3,32.5c-7,0-33-22-58-48
				c-37-38-51-63-66-116C269,22,176-18,100,58c-46,47-62,143-62,372c0,239,11,278,101,369c58,59,104,86,181,107c64,18,173,17,218-2
				c127-53,175-207,106-341l-32-61l22.5-4.6c0.2-0.1,0.3-0.3,0.5-0.4C637.2,496,639.4,495.2,641.7,494.6z M521,590l-3,38
				c-3,36-4,37-49,40c-35,2-49-2-64-18c-17-19-17-21,0-40c13-15,31-20,67-20H521z M390,459v49c0,35-5,54-18,65c-23,21-25,21-46-2
				c-12-13-16-32-14-62c3-43,4-44,41-47L390,459z M324,688c31-42,68-8,64,59c-3,45-5,48-33,51c-17,2-34,0-38-4
				C305,782,310,706,324,688z M301,606c19,17,19,18-3,41c-16,17-32,23-65,23c-47,0-57-11-51-52c3-20,9-23,52-26
				C269,590,287,594,301,606z"/>
		</g>
		<g>
		</g>
	</g>
</g>
<g id="XMLID_12_">
	<g>
		<circle class="st0" cx="113.38" cy="86.81" r="15.32"/>
	</g>
	<g>
	</g>
</g>
<circle class="st1" cx="113.38" cy="86.81" r="10.91"/>
<g id="XMLID_10_">
	<g>
		<path class="st0" d="M113.38,79.43c4.08,0,7.39,3.3,7.39,7.38c0,4.08-3.31,7.38-7.39,7.38c-4.07,0-7.38-3.3-7.38-7.38
			C106,82.73,109.31,79.43,113.38,79.43z"/>
	</g>
	<g>
	</g>
</g>
<g id="XMLID_11_">
	<g>
		<path class="st0" d="M64.91,72.82C70.26,75.21,74,80.57,74,86.81c0,8.46-6.86,15.32-15.32,15.32s-15.32-6.86-15.32-15.32
			s6.86-15.32,15.32-15.32c1.66,0,3.26,0.27,4.76,0.76c0.02,0.01,0.04,0.04,0.06,0.05c0.22,0.1,0.44,0.18,0.67,0.24
			c0.07,0.04,0.15,0.08,0.22,0.11c0.08,0.02,0.16,0.04,0.24,0.06C64.71,72.76,64.8,72.8,64.91,72.82z"/>
	</g>
	<g>
	</g>
</g>
<circle class="st1" cx="58.68" cy="86.81" r="10.91"/>
<g id="XMLID_9_">
	<g>
		<circle class="st0" cx="58.68" cy="86.81" r="7.38"/>
	</g>
	<g>
	</g>
</g>
<g id="XMLID_8_">
	<g>
		<ellipse class="st0" cx="77.81" cy="38.34" rx="7.49" ry="6.13"/>
	</g>
	<g>
	</g>
</g>
<g id="XMLID_7_">
	<g>
		<path class="st0" d="M92.19,31.23c3.81,0,6.9,3.22,6.9,7.2c0,3.97-3.09,7.19-6.9,7.19c-3.81,0-6.89-3.22-6.89-7.19
			C85.3,34.45,88.38,31.23,92.19,31.23z"/>
	</g>
	<g>
	</g>
</g>
<rect x="74.05" y="33.97" class="st1" width="8.91" height="8.91"/>
<rect x="88.05" y="33.97" class="st1" width="8.91" height="8.91"/>
<g id="XMLID_6_">
	<g>
		<ellipse class="st0" cx="138.15" cy="59.2" rx="20.81" ry="19.5"/>
	</g>
	<g>
	</g>
</g>
<circle class="st2" cx="125.13" cy="57.89" r="4.09"/>
<circle class="st1" cx="136.29" cy="47" r="6.01"/>
<circle class="st1" cx="136.48" cy="71.49" r="6.01"/>
<circle class="st1" cx="148.81" cy="59.05" r="6.01"/>
<circle class="st1" cx="123.33" cy="59.01" r="6.01"/>
<g id="XMLID_5_">
	<g>
		<path class="st0" d="M33.98,38.94c11.24,0,20.36,8.86,20.36,19.78c0,10.93-9.12,19.79-20.36,19.79
			c-11.25,0-20.36-8.86-20.36-19.79C13.62,47.8,22.73,38.94,33.98,38.94z"/>
	</g>
	<g>
	</g>
</g>
<g id="XMLID_1_">
	<g>
		<polygon class="st1" points="31.49,58.88 31.49,59 27.79,63 18.04,63 18.04,55 27.91,55 		"/>
	</g>
	<g>
	</g>
</g>
<g id="XMLID_2_">
	<g>
		<polygon class="st1" points="35.2,55.04 35.08,55.04 31.08,51.34 31.08,41.59 39.08,41.59 39.08,51.46 		"/>
	</g>
	<g>
	</g>
</g>
<g id="XMLID_3_">
	<g>
		<polygon class="st1" points="52.7,63 42.83,63 39.25,59.12 39.25,59 42.95,55 52.7,55 		"/>
	</g>
	<g>
	</g>
</g>
<g id="XMLID_4_">
	<g>
		<polygon class="st1" points="34.95,62.96 35.07,62.96 39.07,66.66 39.07,76.41 31.07,76.41 31.07,66.54 		"/>
	</g>
	<g>
	</g>
</g>
</svg>
