<?xml version="1.0" encoding="utf-8"?>
<!-- Generator: Adobe Illustrator 24.3.0, SVG Export Plug-In . SVG Version: 6.00 Build 0)  -->
<svg version="1.1" id="Шар_1" xmlns="http://www.w3.org/2000/svg" xmlns:xlink="http://www.w3.org/1999/xlink" x="0px" y="0px"
	 viewBox="0 0 641.8 100" style="enable-background:new 0 0 641.8 100;" xml:space="preserve">
<style type="text/css">
	.st0{fill:none;}
	.st1{enable-background:new    ;}
	.st2{fill:#0070D1;}
	.st3{display:none;fill:#1D1D1B;}
	.st4{fill:#FFFFFF;}
</style>
<rect x="141.8" y="13.3" class="st0" width="500" height="93.8"/>
<g class="st1">
	<path class="st2" d="M149.2,17.8h18.7c2.6,0,4.8,0.1,6.4,0.2c1.6,0.1,3.3,0.4,5.1,0.8c1.9,0.4,3.4,1,4.5,1.8s2.1,1.9,2.9,3.3
		c0.8,1.4,1.1,3.1,1.1,5.1v11.9c0,4.8-1.8,8.2-5.5,10.3s-9.1,3.1-16.2,3.1h-8.5v20.6h-8.5C149.2,74.9,149.2,17.8,149.2,17.8z
		 M167.4,48.9c3.7,0,6.7-0.7,8.9-2s3.3-3.5,3.3-6.4V30.1c0-1.6-0.4-2.9-1.2-3.9s-2-1.7-3.5-2.2c-1.5-0.4-2.7-0.6-3.7-0.7
		s-2.3-0.2-4-0.2h-9.6v25.8C157.6,48.9,167.4,48.9,167.4,48.9z"/>
	<path class="st2" d="M198.8,13.3h7.9v61.6h-7.9V13.3z"/>
	<path class="st2" d="M224.2,74.6c-2.2-0.8-3.8-2.1-4.8-4s-1.5-4.7-1.5-8.4c0-3.2,0.5-5.7,1.4-7.5s2.5-3.1,4.7-3.8
		c2.2-0.8,5.3-1.1,9.4-1.1h12.8V43c0-1.6-0.3-2.8-0.9-3.7c-0.6-0.8-1.6-1.5-3.1-1.8c-1.4-0.4-3.5-0.5-6.3-0.5
		c-4.4,0-9.3,0.4-14.6,1.1v-5.8c5.8-0.5,11.1-0.8,15.8-0.8c4.9,0,8.6,0.4,10.9,1.1c2.3,0.7,4,2,4.8,3.8c0.9,1.8,1.3,4.6,1.3,8.4
		v30.1h-7.7v-4c-0.6,3.3-4.9,4.9-12.8,4.9C229.5,75.8,226.4,75.4,224.2,74.6z M234.9,70.6c2.9,0,5.3-0.2,7.3-0.6
		c2.6-0.5,4-1.8,4-3.7V54.7h-12.3c-2.5,0-4.3,0.2-5.5,0.6c-1.1,0.4-1.8,1.1-2.2,2.2c-0.4,1.1-0.5,2.8-0.5,5.1c0,2.1,0.2,3.7,0.6,4.9
		c0.4,1.1,1.1,2,2.2,2.5c1.1,0.5,2.6,0.7,4.8,0.7L234.9,70.6L234.9,70.6z"/>
	<path class="st2" d="M277.9,75.5l-16.5-43.2h8.6l11.9,34.8h0.2l10.7-34.8h8l-21.4,60.9h-8.3L277.9,75.5z"/>
	<path class="st2" d="M325.4,17.8h9.9l22.2,57.1h-8.9l-6.5-17.3h-24.5l-6.4,17.3h-8.4L325.4,17.8z M340,51.7l-9.7-25.8h-0.8
		l-9.7,25.8H340z"/>
	<path class="st2" d="M375,74.6c-2.1-0.8-3.5-2.1-4.4-4s-1.4-4.6-1.4-8.1v-25h-9.5v-5.2h9.5V19.1h8v13.2h15.2v5.2h-15.2v25.4
		c0,2.1,0.2,3.7,0.7,4.8c0.5,1.1,1.4,1.8,2.6,2.2c1.3,0.4,3.1,0.7,5.5,0.7c0.8,0,2.9-0.2,6.3-0.7v5.2c-3,0.5-6,0.7-8.9,0.7
		C379.9,75.8,377,75.4,375,74.6z"/>
	<path class="st2" d="M401.5,17.8h8.5v24.6h30.4V17.8h8.5v57.1h-8.5V48.4H410v26.5h-8.5V17.8z"/>
	<path class="st2" d="M472.8,75.4c-1.9-0.3-3.8-0.8-5.6-1.7c-1.9-0.9-3.3-2.3-4.2-4.3c-0.9-2-1.3-4.6-1.3-8V46.6c0-2.6,0.3-5,1-7
		c0.6-2,1.5-3.5,2.6-4.7c0.9-1,2.2-1.8,4-2.3c1.8-0.6,3.6-0.9,5.5-1.1c2.1-0.1,4.3-0.2,6.6-0.2c3,0,5.4,0.1,6.9,0.2
		c1.6,0.1,3.2,0.5,5,0.9c1.8,0.5,3.2,1.3,4.2,2.4c1,1.1,1.8,2.6,2.6,4.6c0.6,2.1,1,4.4,1,7.1v14.8c0,5-1.1,8.6-3.4,10.9
		c-0.9,0.9-2.3,1.7-4,2.2c-1.8,0.5-3.6,0.9-5.5,1.1c-2.2,0.1-4.5,0.2-6.7,0.2C477.5,75.8,474.7,75.6,472.8,75.4z M486.6,70.4
		c1.1-0.1,2.2-0.4,3.3-1c1.1-0.5,1.8-1.2,2.2-2.3c0.4-1.1,0.7-2.6,0.7-4.5V45.3c0-2.6-0.3-4.6-1-5.8c-0.6-1.2-1.7-2-3.3-2.4
		c-1.6-0.4-4-0.6-7.3-0.6s-5.7,0.2-7.3,0.6c-1.6,0.4-2.7,1.2-3.3,2.4c-0.6,1.2-1,3.1-1,5.8v17.2c0,1.9,0.2,3.4,0.7,4.5
		c0.4,1.1,1.2,1.9,2.2,2.3c1.1,0.5,2.1,0.9,3.3,1c1.1,0.1,2.9,0.2,5.4,0.2S485.5,70.5,486.6,70.4z"/>
	<path class="st2" d="M513.2,32.3h7.9v5.2c0.8-4,5.6-6.1,14.3-6.1c7.1,0,11.5,1.9,13.3,5.8c0.5-1.9,2.1-3.3,4.8-4.3s5.9-1.5,9.8-1.5
		c5.3,0,9,1,11.2,2.9c2.2,2,3.3,5.1,3.3,9.3v31.2h-7.9V44.2c0-1.1-0.1-2-0.3-2.7s-0.5-1.4-1.1-2.1c-1.2-1.5-3.8-2.2-7.8-2.2
		c-3.1,0-5.4,0.2-7,0.6c-1.5,0.4-2.6,1.1-3.1,2.1c-0.6,1-0.8,2.4-0.8,4.3v30.7h-7.9V44.2c0-1.1-0.1-2-0.3-2.7s-0.5-1.4-1.1-2.1
		c-1.2-1.5-3.8-2.2-7.7-2.2c-3.2,0-5.7,0.2-7.3,0.6c-1.6,0.4-2.8,1.1-3.4,2.1c-0.6,1-1,2.4-1,4.4V75h-7.9V32.3z"/>
	<path class="st2" d="M590,62.8V45.9c0-5.2,1.5-8.9,4.4-11.1c3-2.3,7.8-3.4,14.4-3.4c6.3,0,10.8,1.1,13.6,3.3s4.2,5.9,4.2,11.3v9.4
		H598v6.4c0,2.9,1,5,3.1,6.3s5.2,1.9,9.5,1.9c4,0,8.8-0.7,14.3-2.1V74c-5.4,1.2-10.5,1.8-15.4,1.8C596.5,75.8,590,71.4,590,62.8z
		 M618.6,50.2v-6.7c0-2.6-0.8-4.4-2.3-5.3c-1.6-1-4.2-1.5-8-1.5c-3.6,0-6.3,0.5-7.9,1.5c-1.6,1-2.5,2.7-2.5,5.3v6.7H618.6z"/>
	<g transform="translate(0.000000,122.000000) scale(0.100000,-0.100000)">
		<circle class="st3" cx="956.4" cy="788.3" r="28.2"/>
	</g>
	<g>
		<g id="XMLID_8_">
			<g>
				<path class="st2" d="M120.1,50.4c0.9,11.9-0.3,25-2.8,29.9c-2.3,4.4-7.8,5.8-11.4,2.8c-1.4-1.2-2.3-3-3.4-6.3
					c-1.2-3.7-2-5.2-4.5-7.7c-1.7-1.7-3.4-3.1-3.7-3.1c0,0,0,0-0.1,0c0.2-0.9,0.4-1.8,0.4-2.7c0-5.4-4.4-9.9-9.9-9.9
					c-0.7,0-1.4,0.1-2.1,0.2c0.1-0.1,0.2-0.2,0.2-0.3c0-0.1,0-0.2-0.1-0.2l-1.7-2.7c-5-8-2.1-19.1,6-22.8c1.7-0.7,3.9-1,8.7-0.8
					c7.7,0.2,12,1.9,17,6.5C117.9,38.1,119.4,41.5,120.1,50.4z M111.5,45.3c0-2.1-1.7-3.9-3.9-3.9c-2.1,0-3.9,1.7-3.9,3.9
					c0,2.1,1.7,3.9,3.9,3.9C109.8,49.1,111.5,47.4,111.5,45.3z M103.2,38.8c0.9-1.4,0.8-2.3-0.4-3.7c-1.8-2-3.6-2.3-5.5-0.7
					c-1.7,1.4-2.1,3.2-1.2,4.9c0.6,1.3,1.9,2.2,3.5,2.2C101.2,41.4,102.6,40.3,103.2,38.8z M103.5,53.3c0-2.1-1.7-3.9-3.9-3.9
					c-2.1,0-3.9,1.7-3.9,3.9c0,2.1,1.7,3.9,3.9,3.9C101.8,57.2,103.5,55.5,103.5,53.3z M95.6,45.3c0-2.1-1.7-3.9-3.9-3.9
					s-3.9,1.7-3.9,3.9c0,2.1,1.7,3.9,3.9,3.9S95.6,47.4,95.6,45.3z"/>
				<circle class="st4" cx="107.6" cy="45.3" r="3.9"/>
				<path class="st4" d="M103.4,37.5c0,0.4-0.1,0.9-0.2,1.3c-0.2,0.3-0.4,0.6-0.7,0.9c-1.6,2-3.9,2.2-5.7,0.4
					c-0.3-0.3-0.5-0.6-0.7-0.9c-0.3-0.5-0.4-1.1-0.4-1.7c0-2.1,1.7-3.9,3.9-3.9S103.4,35.4,103.4,37.5z"/>
				<circle class="st4" cx="99.6" cy="53.3" r="3.9"/>
				<path class="st4" d="M99.5,41.4c-1.5,0-2.8-0.9-3.5-2.2c0.2,0.3,0.4,0.6,0.7,0.9c1.8,1.8,4.1,1.6,5.7-0.4
					c0.3-0.3,0.5-0.7,0.7-0.9C102.6,40.3,101.2,41.4,99.5,41.4z"/>
				<path class="st2" d="M97.2,34.4c1.9-1.5,3.7-1.3,5.5,0.7c1.2,1.4,1.4,2.3,0.4,3.7c0.1-0.4,0.2-0.8,0.2-1.3
					c0-2.1-1.7-3.9-3.9-3.9s-3.9,1.7-3.9,3.9c0,0.6,0.1,1.2,0.4,1.7C95,37.6,95.4,35.7,97.2,34.4z"/>
				<circle class="st4" cx="92.3" cy="44.6" r="2.6"/>
				<path class="st2" d="M83.7,56.3c-3.4,0.5-5.9,3.4-5.9,6.9c0,3.9,3.1,7,7,7c2.7,0,5.1-1.6,6.3-3.9c0.2,0.1,0.3,0.2,0.5,0.4
					c0.2,0.2,0.4,0.4,0.5,0.7c0.2,0.2,0.3,0.4,0.5,0.6c0.7-1.1,1.4-2,1.8-2.1c-1.2,4.1-5,7.1-9.5,7.1c-5.4,0-9.9-4.4-9.9-9.9
					c0-4.7,3.3-8.7,7.8-9.6c-0.1,0-0.1,0.1-0.2,0.1c-0.3,0.1-0.5,0.5-0.2,0.7c0.3,0.3,0.5,0.6,0.6,1c0,0.1,0,0.1,0.1,0.1
					c0.2,0.2,0.3,0.4,0.4,0.6C83.4,56.2,83.5,56.3,83.7,56.3z"/>
				<path class="st4" d="M91.8,41.4c2.1,0,3.9,1.7,3.9,3.9c0,2.1-1.7,3.9-3.9,3.9s-3.9-1.7-3.9-3.9C87.9,43.1,89.6,41.4,91.8,41.4z
					 M92.3,47.2c1.5,0,2.6-1.2,2.6-2.6s-1.2-2.6-2.6-2.6c-1.5,0-2.6,1.2-2.6,2.6S90.8,47.2,92.3,47.2z"/>
				<circle class="st2" cx="84.7" cy="63.2" r="4.8"/>
				<path class="st4" d="M89.5,63.2c0-2.6-2.1-4.8-4.8-4.8c-2.6,0-4.8,2.1-4.8,4.8s2.1,4.8,4.8,4.8C87.4,68,89.5,65.8,89.5,63.2z
					 M83.7,56.3c1.8,0.1,2.7,0.5,4.4,2.1c2.3,2.2,3.1,4.9,2.6,7.4c0.1,0.2,0.1,0.3,0.2,0.5c0,0,0.1,0,0.1,0.1
					c-1.2,2.3-3.5,3.9-6.3,3.9c-3.9,0-7-3.1-7-7C77.7,59.7,80.3,56.8,83.7,56.3C83.7,56.3,83.7,56.3,83.7,56.3z"/>
				<path class="st2" d="M90.2,24.8c-7,1-11.9,5.9-13.4,13.2c-0.8,3.9-0.5,6.9,1.3,11l1.1,2.3c0.1,0.2,0,0.5-0.2,0.6l-1.4,0.7
					c-2.4,1.2-5.7,4.8-6.5,7c-0.4,1-0.7,3.1-0.7,4.7v2.4c0,0.2-0.2,0.4-0.4,0.4h-3.1h-3.1c-0.2,0-0.4-0.2-0.4-0.4v-2.5
					c0-1.6-0.4-3.8-0.8-5c0,0,0,0,0,0c-0.9-2-5.2-6.4-7-7c-0.6-0.2-0.5-1,0.6-3.6c2.6-6.1,1.5-13.7-2.8-18.7c-2.6-3-5.4-4.4-9.9-5.1
					l-2.1-0.3c-0.4-0.1-0.5-0.6-0.2-0.8l12.4-7.6c6.6-4.1,12.2-7.4,13.4-8C67,8,67.1,8,67.3,8.1c1.1,0.6,6.7,4.1,13.2,8.1l12.1,7.4
					c0.3,0.2,0.2,0.7-0.2,0.8L90.2,24.8z M74,43.3h0.1v-0.1c0-0.1,0.1-0.1,0.1-0.2v-2.5V38c0-0.1,0-0.2-0.1-0.2v-0.2h-0.4h-2.5h-2.5
					h-0.4V38v2.5v2.5v0.4H74z M59.4,43.3h5.5h0.2v-0.4V38v-0.4h-0.4h-4.9h-0.4v0.2V43.3z M74.2,34.9v-5.7h-5.7v5.7H74.2z M65.1,34.9
					v-5.7h-5.7v5.7H65.1z"/>
				<path class="st4" d="M84.7,56.2c3.9,0,7,3.1,7,7c0,1.1-0.3,2.2-0.8,3.2c0,0-0.1,0-0.1-0.1c-0.1-0.2-0.1-0.3-0.2-0.5
					c0.5-2.5-0.2-5.3-2.6-7.4c-1.7-1.6-2.6-2-4.4-2.1C84,56.2,84.4,56.2,84.7,56.2z"/>
				<path class="st2" d="M94.2,65.9c-0.4,0.1-1.1,1-1.8,2.1c-0.2-0.2-0.3-0.4-0.5-0.6c-0.1-0.2-0.3-0.5-0.5-0.7
					c-0.1-0.1-0.3-0.3-0.5-0.4c0.5-1,0.8-2,0.8-3.2c0-3.9-3.1-7-7-7c-0.4,0-0.7,0-1.1,0.1c0,0,0,0,0,0c-0.1,0-0.3-0.1-0.3-0.2
					c-0.1-0.2-0.3-0.4-0.4-0.6c0,0-0.1-0.1-0.1-0.1c-0.1-0.4-0.3-0.7-0.6-1c-0.2-0.3-0.1-0.7,0.2-0.7c0.1,0,0.1,0,0.2-0.1
					c0.7-0.1,1.4-0.2,2.1-0.2c5.4,0,9.9,4.4,9.9,9.9C94.6,64.2,94.5,65.1,94.2,65.9C94.2,65.9,94.2,65.9,94.2,65.9z"/>
				<path class="st2" d="M74.2,40.4v2.5c0,0.1,0,0.2-0.1,0.2v-5.4c0,0.1,0.1,0.1,0.1,0.2V40.4z"/>
				<rect x="68.4" y="29.2" class="st4" width="5.7" height="5.7"/>
				<path class="st4" d="M74.1,43.1v0.1H74C74,43.2,74.1,43.2,74.1,43.1z"/>
				<path class="st4" d="M74.1,37.7v5.4c0,0.1-0.1,0.1-0.1,0.1h-5.6v-0.4v-2.5V38c0-0.2,0.2-0.4,0.4-0.4h2.5h2.5
					C73.9,37.5,74,37.6,74.1,37.7z"/>
				<path class="st4" d="M74.1,37.5v0.2c-0.1-0.1-0.2-0.2-0.4-0.2H74.1z"/>
				<path class="st4" d="M68.4,37.5h0.4c-0.2,0-0.4,0.2-0.4,0.4V37.5z"/>
				<path class="st4" d="M65.1,38v4.9c0,0.2-0.1,0.3-0.2,0.4h-5.5v-5.5c0.1-0.1,0.2-0.2,0.4-0.2h4.9C65,37.5,65.1,37.7,65.1,38z"/>
				<path class="st4" d="M65.1,42.9v0.4h-0.2C65.1,43.2,65.1,43.1,65.1,42.9z"/>
				<path class="st4" d="M65.1,37.5V38c0-0.2-0.2-0.4-0.4-0.4H65.1z"/>
				<rect x="59.4" y="29.2" class="st4" width="5.7" height="5.7"/>
				<path class="st4" d="M59.4,37.5h0.4c-0.2,0-0.3,0.1-0.4,0.2V37.5z"/>
				<path class="st2" d="M53.4,54.2C53.4,54.2,53.3,54.2,53.4,54.2C53.3,54.2,53.3,54.2,53.4,54.2C53.4,54.2,53.4,54.2,53.4,54.2z"
					/>
				<path class="st2" d="M53.3,54.1C53.3,54.1,53.3,54.1,53.3,54.1c-0.1,0-0.1,0-0.1,0C53.2,54.1,53.3,54.1,53.3,54.1z"/>
				<path class="st2" d="M53.2,54.1C53.2,54.1,53.2,54.1,53.2,54.1c-0.1,0-0.1,0-0.1,0C53.1,54,53.2,54.1,53.2,54.1z"/>
				<circle class="st2" cx="49.5" cy="63.2" r="4.8"/>
				<path class="st2" d="M53,54C53,54,53.1,54,53,54c-0.1,0-0.2,0-0.4-0.1c0,0-0.1,0-0.1-0.1C52.7,53.9,52.9,54,53,54z"/>
				<path class="st2" d="M52.6,53.9c-0.1,0-0.1,0-0.2-0.1L52.6,53.9C52.6,53.8,52.6,53.8,52.6,53.9z"/>
				<path class="st2" d="M52.4,53.8l-0.7-0.2c-0.1,0-0.1-0.1-0.2-0.1C51.8,53.6,52.1,53.7,52.4,53.8z"/>
				<path class="st2" d="M53.5,54.2c3.4,1.5,5.9,5,5.9,9c0,5.5-4.4,9.9-9.9,9.9c-4,0-7.5-2.4-9-5.9c0.2,0.3,0.3,0.5,0.5,0.8
					c0.1-0.2,0.3-0.4,0.4-0.5c0.3-0.3,0.6-0.5,1-0.7c0.2-0.1,0.5-0.2,0.7-0.2c-0.2-0.5-0.3-1.1-0.4-1.7c0.8,3.1,3.5,5.3,6.8,5.3
					c3.9,0,7-3.1,7-7c0-3.6-2.6-6.5-6.1-7c0.1,0,0.1,0,0.2,0c0.5,0,0.9,0,1.2,0c0.2,0,0.4-0.1,0.4-0.3
					C52.5,55.2,52.9,54.6,53.5,54.2C53.4,54.2,53.4,54.2,53.5,54.2C53.4,54.2,53.5,54.2,53.5,54.2z"/>
				<path class="st4" d="M49.5,58.4c-2.6,0-4.8,2.1-4.8,4.8s2.1,4.8,4.8,4.8s4.8-2.1,4.8-4.8S52.1,58.4,49.5,58.4z M42.6,63.8
					c0-2.1,0.5-3,2.5-5c2.1-2.1,2.8-2.5,5.3-2.5c3.4,0.5,6.1,3.4,6.1,7c0,3.9-3.1,7-7,7c-3.3,0-6.1-2.3-6.8-5.3c0,0,0,0,0,0
					C42.6,64.5,42.6,64.2,42.6,63.8z"/>
				<path class="st4" d="M45.6,42.7v5.2h-0.9h-2.7c-1.5,0-2.5-0.1-3.3-0.5l-1.8-2c0,0,0-0.1,0-0.1l2.1-2.2l0.4-0.4H45.6z"/>
				<path class="st4" d="M42.5,63.2c0-3.9,3.1-7,7-7c0.3,0,0.6,0,0.9,0.1c-2.5,0-3.2,0.4-5.3,2.5c-2.1,2.1-2.5,3-2.5,5
					c0,0.4,0,0.7,0.1,1.1C42.5,64.3,42.5,63.8,42.5,63.2z"/>
				<path class="st4" d="M42.1,47.9h-2.8l-0.5-0.5C39.5,47.7,40.5,47.9,42.1,47.9z"/>
				<path class="st2" d="M53.4,54.2c-0.6,0.4-1,1.1-1.1,1.8c0,0.2-0.2,0.3-0.4,0.3c-0.4,0-0.8,0-1.2,0c-0.1,0-0.1,0-0.2,0
					c-0.3,0-0.6-0.1-0.9-0.1c-3.9,0-7,3.1-7,7c0,0.6,0.1,1.1,0.2,1.7c0,0,0,0,0,0c0.1,0.6,0.2,1.1,0.4,1.7c-0.2,0-0.5,0.1-0.7,0.2
					c-0.4,0.1-0.7,0.4-1,0.7c-0.1,0.2-0.3,0.3-0.4,0.5c-0.1-0.3-0.3-0.6-0.5-0.8c0,0,0,0,0,0c-0.5-1.2-0.8-2.6-0.8-4
					c0-5.4,4.4-9.9,9.9-9.9c0.7,0,1.3,0.1,2,0.2c0,0,0,0,0,0c0.1,0,0.1,0.1,0.2,0.1l0.7,0.2c0.1,0,0.1,0,0.2,0.1l0,0
					c0,0,0,0,0.1,0.1c0.1,0.1,0.3,0.1,0.4,0.1c0,0,0,0,0,0c0,0,0,0,0.1,0c0,0,0,0,0.1,0c0,0,0,0,0,0c0,0,0.1,0,0.1,0c0,0,0,0,0,0
					C53.3,54.2,53.3,54.2,53.4,54.2C53.3,54.2,53.4,54.2,53.4,54.2C53.4,54.2,53.4,54.2,53.4,54.2z"/>
				<path class="st2" d="M45.6,47.9v-5.2h-6.3L39,43.1c-0.5,0.2-0.8,0.5-1.2,0.9c-0.5,0.6-0.8,0.9-0.8,1.3l0,0v0.1l0,0
					c0,0.3,0.3,0.6,0.8,1.2c0.3,0.3,0.6,0.6,1,0.8l0.5,0.5h2.8h2.7H45.6z M32.1,40.7l2.1,2h0.1l2.5-2.3v-6.4h-5.2v1.9
					c-0.1,0.7-0.1,1.5,0,2.3v2.1L32.1,40.7z M39.2,65.9c-0.5,0-2.1,1.4-3.7,3.1c-2.4,2.5-3.3,4.1-4.3,7.5c-2.3,8-8.3,10.6-13.2,5.7
					c-3-3-4-9.2-4-24c0-15.4,0.7-17.9,6.5-23.8c3.7-3.8,6.7-5.5,11.7-6.9c4.1-1.2,11.2-1.1,14.1,0.1c8.2,3.4,11.3,13.3,6.8,22
					L51.4,53c-0.1,0.2,0,0.4,0.1,0.5c-0.6-0.1-1.3-0.2-2-0.2c-5.4,0-9.9,4.4-9.9,9.9c0,1.4,0.3,2.7,0.8,4
					C40,66.4,39.5,65.9,39.2,65.9z M36.8,56.5v-6.3l-0.7-0.6c-0.1-0.3-0.3-0.5-0.5-0.7c-0.5-0.5-0.9-0.8-1.1-0.9l-0.2-0.2h-0.1
					L34.1,48c-0.4,0-0.8,0.4-1.4,1.1c-0.1,0.1-0.3,0.3-0.4,0.5l-0.6,0.5v6.4H36.8z M31.9,45.3L31.9,45.3l-2.3-2.6h-3h-3.4v5.2h6.3
					l0.3-0.4c0,0,0,0,0,0c0.4-0.2,0.8-0.4,1.1-0.7C31.8,46.1,32.1,45.9,31.9,45.3L31.9,45.3z"/>
				<path class="st2" d="M39,43.1l-2.1,2.2c0-0.3,0.3-0.7,0.8-1.3C38.1,43.6,38.5,43.3,39,43.1z"/>
				<path class="st2" d="M36.9,45.4l1.8,2c-0.4-0.2-0.7-0.4-1-0.8C37.2,46,37,45.7,36.9,45.4z"/>
				<path class="st4" d="M36.9,45.4L36.9,45.4L36.9,45.4l0-0.1C36.9,45.3,36.9,45.3,36.9,45.4z"/>
				<path class="st4" d="M36.8,56.5h-5.2v-6.4l0.6-0.5l1.8-1.6c0.1,0,0.2,0,0.4,0.1l1.7,1.6l0.7,0.6V56.5z"/>
				<path class="st2" d="M36.2,49.6l-1.7-1.6c0.3,0.1,0.6,0.4,1.1,0.9C35.8,49.1,36,49.4,36.2,49.6z"/>
				<path class="st4" d="M34.3,47.9l0.2,0.2c-0.1-0.1-0.3-0.1-0.4-0.1L34.3,47.9L34.3,47.9z"/>
				<path class="st2" d="M34.1,48l-1.8,1.6c0.1-0.2,0.2-0.3,0.4-0.5C33.3,48.3,33.7,48,34.1,48z"/>
				<path class="st4" d="M31.7,34.1h5.2v6.4l-2.5,2.3h-0.1l-2.1-2c-0.2-0.7-0.4-1.6-0.5-2.5v-2.3V34.1z"/>
				<path class="st4" d="M32.1,40.7l-0.5-0.4v-2.1C31.8,39.2,31.9,40.1,32.1,40.7z"/>
				<path class="st2" d="M31.9,45.4c0.2,0.5,0,0.8-0.8,1.5c-0.3,0.3-0.7,0.5-1.1,0.7L31.9,45.4z"/>
				<path class="st4" d="M31.9,45.4l-1.9,2.1c0,0,0,0,0,0c-0.8,0.3-1.8,0.3-3.2,0.3c-2.8-0.2-3.2-0.4-3.4-1.7
					c-0.4-2.6,0.3-3.4,3.3-3.4c2.1,0,3.2,0.4,4.2,1.5C31.4,44.7,31.7,45.1,31.9,45.4z"/>
				<path class="st2" d="M31.7,35.9v2.3C31.6,37.4,31.6,36.6,31.7,35.9z"/>
				<path class="st4" d="M29.6,42.7l2.3,2.5v0.1l-0.1,0.1c-0.1-0.3-0.5-0.6-1-1.2c-1-1.1-2.1-1.5-4.2-1.5H29.6z"/>
				<path class="st4" d="M29.6,47.9h-6.3v-5.2h3.4c-3,0-3.7,0.7-3.3,3.4c0.2,1.3,0.6,1.5,3.4,1.7c1.4,0.1,2.4,0,3.2-0.3L29.6,47.9z"
					/>
			</g>
			<g>
			</g>
		</g>
	</g>
	<rect id="_x3C_Фрагмент_x3E_" x="9" y="39.3" class="st0" width="91.3" height="66"/>
</g>
</svg>
