<?xml version="1.0" encoding="utf-8"?>
<!-- Generator: Adobe Illustrator 24.3.0, SVG Export Plug-In . SVG Version: 6.00 Build 0)  -->
<svg version="1.1" id="Шар_1" xmlns="http://www.w3.org/2000/svg" xmlns:xlink="http://www.w3.org/1999/xlink" x="0px" y="0px"
	 viewBox="0 0 800 800" style="enable-background:new 0 0 800 800;" xml:space="preserve">
<style type="text/css">
	.st0{fill:#FFFFFF;}
	.st1{fill:none;}
</style>
<path class="st0" d="M226.2,532.7l470.3-33.6L771.4,200H178.2l-9.5-54.3c-3.9-21.8-21.6-38.4-43.6-41l-83.2-9.5l-3.8,33.1l83.2,9.5
	c7.3,0.9,13.2,6.4,14.5,13.7l63.3,361.8l-27.5,43.4c-14.8,23.3-7.9,54.1,15.4,68.9c4,2.6,8.4,4.5,13,5.9v5.1
	c-26,9.2-39.7,37.8-30.5,63.8c9.2,26,37.8,39.7,63.8,30.5c26-9.2,39.7-37.8,30.5-63.8c-5-14.2-16.2-25.4-30.5-30.5v-3.1h383.3
	c4.5,0,8.7,1.8,11.9,5c-25,11.8-35.7,41.6-23.9,66.6c11.8,25,41.6,35.7,66.6,23.9c25-11.8,35.7-41.6,23.9-66.6
	c-6.1-12.8-17.3-22.5-30.8-26.6c-6.3-21.1-25.6-35.6-47.7-35.7H213.9c-9.2,0-16.7-7.5-16.7-16.7c0-3.2,0.9-6.3,2.6-8.9L226.2,532.7z
	 M650,700c-9.2,0-16.7-7.5-16.7-16.7c0-9.2,7.5-16.7,16.7-16.7c9.2,0,16.7,7.5,16.7,16.7C666.7,692.5,659.2,700,650,700z M216.7,700
	c-9.2,0-16.7-7.5-16.7-16.7c0-9.2,7.5-16.7,16.7-16.7s16.7,7.5,16.7,16.7C233.3,692.5,225.9,700,216.7,700z M728.7,233.3
	l-58.6,234.2L230.5,499L184,233.3H728.7z"/>
<path class="st1" d="M0,0h800v800H0V0z"/>
</svg>
